<mxfile host="app.diagrams.net" modified="2022-03-10T07:53:23.819Z" agent="5.0 (Windows NT 10.0; Win64; x64) AppleWebKit/537.36 (KHTML, like Gecko) Chrome/96.0.4664.174 YaBrowser/22.1.4.837 Yowser/2.5 Safari/537.36" etag="WMe_GiR8AlwFETJhruwk" version="17.0.0" type="github">
  <diagram id="opqW76gDBK6K49s7DG7d" name="Page-1">
    <mxGraphModel dx="1155" dy="673" grid="1" gridSize="10" guides="1" tooltips="1" connect="1" arrows="1" fold="1" page="1" pageScale="1" pageWidth="1100" pageHeight="850" math="0" shadow="0">
      <root>
        <mxCell id="0" />
        <mxCell id="1" parent="0" />
        <mxCell id="GJpR_rD98a4P3vOJBigp-1" value="Пользователи" style="rounded=0;whiteSpace=wrap;html=1;" vertex="1" parent="1">
          <mxGeometry x="270" y="170" width="120" height="60" as="geometry" />
        </mxCell>
        <mxCell id="GJpR_rD98a4P3vOJBigp-2" value="Позиции" style="rounded=0;whiteSpace=wrap;html=1;" vertex="1" parent="1">
          <mxGeometry x="510" y="170" width="120" height="60" as="geometry" />
        </mxCell>
        <mxCell id="GJpR_rD98a4P3vOJBigp-3" value="сумма закрытия&amp;nbsp;&lt;br&gt;позиции" style="ellipse;whiteSpace=wrap;html=1;" vertex="1" parent="1">
          <mxGeometry x="640" y="20" width="100" height="70" as="geometry" />
        </mxCell>
        <mxCell id="GJpR_rD98a4P3vOJBigp-4" value="сумма открытия&lt;br&gt;позиции" style="ellipse;whiteSpace=wrap;html=1;" vertex="1" parent="1">
          <mxGeometry x="720" y="100" width="80" height="60" as="geometry" />
        </mxCell>
        <mxCell id="GJpR_rD98a4P3vOJBigp-5" value="символ" style="ellipse;whiteSpace=wrap;html=1;fontStyle=4" vertex="1" parent="1">
          <mxGeometry x="780" y="200" width="70" height="60" as="geometry" />
        </mxCell>
        <mxCell id="GJpR_rD98a4P3vOJBigp-6" value="куплена ли" style="ellipse;whiteSpace=wrap;html=1;" vertex="1" parent="1">
          <mxGeometry x="690" y="270" width="70" height="60" as="geometry" />
        </mxCell>
        <mxCell id="GJpR_rD98a4P3vOJBigp-7" value="имя пользователя" style="ellipse;whiteSpace=wrap;html=1;" vertex="1" parent="1">
          <mxGeometry x="550" y="280" width="100" height="60" as="geometry" />
        </mxCell>
        <mxCell id="GJpR_rD98a4P3vOJBigp-8" value="" style="endArrow=none;html=1;rounded=0;" edge="1" parent="1" source="GJpR_rD98a4P3vOJBigp-2" target="GJpR_rD98a4P3vOJBigp-3">
          <mxGeometry width="50" height="50" relative="1" as="geometry">
            <mxPoint x="660" y="220" as="sourcePoint" />
            <mxPoint x="710" y="170" as="targetPoint" />
          </mxGeometry>
        </mxCell>
        <mxCell id="GJpR_rD98a4P3vOJBigp-9" value="" style="endArrow=none;html=1;rounded=0;" edge="1" parent="1" source="GJpR_rD98a4P3vOJBigp-2" target="GJpR_rD98a4P3vOJBigp-4">
          <mxGeometry width="50" height="50" relative="1" as="geometry">
            <mxPoint x="592.4137931034484" y="180" as="sourcePoint" />
            <mxPoint x="626.0890541353642" y="98.61811917287014" as="targetPoint" />
          </mxGeometry>
        </mxCell>
        <mxCell id="GJpR_rD98a4P3vOJBigp-10" value="" style="endArrow=none;html=1;rounded=0;" edge="1" parent="1" source="GJpR_rD98a4P3vOJBigp-2" target="GJpR_rD98a4P3vOJBigp-5">
          <mxGeometry width="50" height="50" relative="1" as="geometry">
            <mxPoint x="640" y="187.89473684210532" as="sourcePoint" />
            <mxPoint x="734.0978269425095" y="153.22711638960186" as="targetPoint" />
          </mxGeometry>
        </mxCell>
        <mxCell id="GJpR_rD98a4P3vOJBigp-12" value="" style="endArrow=none;html=1;rounded=0;" edge="1" parent="1" source="GJpR_rD98a4P3vOJBigp-2" target="GJpR_rD98a4P3vOJBigp-6">
          <mxGeometry width="50" height="50" relative="1" as="geometry">
            <mxPoint x="650" y="197.89473684210532" as="sourcePoint" />
            <mxPoint x="744.0978269425095" y="163.22711638960186" as="targetPoint" />
          </mxGeometry>
        </mxCell>
        <mxCell id="GJpR_rD98a4P3vOJBigp-13" value="" style="endArrow=none;html=1;rounded=0;" edge="1" parent="1" source="GJpR_rD98a4P3vOJBigp-2" target="GJpR_rD98a4P3vOJBigp-7">
          <mxGeometry width="50" height="50" relative="1" as="geometry">
            <mxPoint x="660" y="207.89473684210532" as="sourcePoint" />
            <mxPoint x="754.0978269425095" y="173.22711638960186" as="targetPoint" />
          </mxGeometry>
        </mxCell>
        <mxCell id="GJpR_rD98a4P3vOJBigp-14" value="&lt;u&gt;Имя пользователя&lt;/u&gt;" style="ellipse;whiteSpace=wrap;html=1;" vertex="1" parent="1">
          <mxGeometry x="210" y="30" width="100" height="70" as="geometry" />
        </mxCell>
        <mxCell id="GJpR_rD98a4P3vOJBigp-15" value="Пароль" style="ellipse;whiteSpace=wrap;html=1;" vertex="1" parent="1">
          <mxGeometry x="130" y="110" width="100" height="70" as="geometry" />
        </mxCell>
        <mxCell id="GJpR_rD98a4P3vOJBigp-16" value="Баланс" style="ellipse;whiteSpace=wrap;html=1;" vertex="1" parent="1">
          <mxGeometry x="120" y="230" width="100" height="70" as="geometry" />
        </mxCell>
        <mxCell id="GJpR_rD98a4P3vOJBigp-17" value="Токен" style="ellipse;whiteSpace=wrap;html=1;" vertex="1" parent="1">
          <mxGeometry x="240" y="270" width="100" height="70" as="geometry" />
        </mxCell>
        <mxCell id="GJpR_rD98a4P3vOJBigp-18" value="идентификатор" style="ellipse;whiteSpace=wrap;html=1;fontStyle=4" vertex="1" parent="1">
          <mxGeometry x="520" y="10" width="100" height="70" as="geometry" />
        </mxCell>
        <mxCell id="GJpR_rD98a4P3vOJBigp-19" value="" style="endArrow=none;html=1;rounded=0;" edge="1" parent="1" source="GJpR_rD98a4P3vOJBigp-2" target="GJpR_rD98a4P3vOJBigp-18">
          <mxGeometry width="50" height="50" relative="1" as="geometry">
            <mxPoint x="604.8275862068967" y="180" as="sourcePoint" />
            <mxPoint x="674.9364256933729" y="95.2851522871747" as="targetPoint" />
          </mxGeometry>
        </mxCell>
        <mxCell id="GJpR_rD98a4P3vOJBigp-20" value="" style="endArrow=none;html=1;rounded=0;" edge="1" parent="1" source="GJpR_rD98a4P3vOJBigp-1" target="GJpR_rD98a4P3vOJBigp-14">
          <mxGeometry width="50" height="50" relative="1" as="geometry">
            <mxPoint x="580" y="180" as="sourcePoint" />
            <mxPoint x="580" y="90" as="targetPoint" />
          </mxGeometry>
        </mxCell>
        <mxCell id="GJpR_rD98a4P3vOJBigp-21" value="" style="endArrow=none;html=1;rounded=0;" edge="1" parent="1" source="GJpR_rD98a4P3vOJBigp-1" target="GJpR_rD98a4P3vOJBigp-15">
          <mxGeometry width="50" height="50" relative="1" as="geometry">
            <mxPoint x="324.44444444444434" y="180" as="sourcePoint" />
            <mxPoint x="287.0591967323867" y="107.89987941246" as="targetPoint" />
          </mxGeometry>
        </mxCell>
        <mxCell id="GJpR_rD98a4P3vOJBigp-22" value="" style="endArrow=none;html=1;rounded=0;" edge="1" parent="1" source="GJpR_rD98a4P3vOJBigp-1" target="GJpR_rD98a4P3vOJBigp-16">
          <mxGeometry width="50" height="50" relative="1" as="geometry">
            <mxPoint x="280" y="188" as="sourcePoint" />
            <mxPoint x="234.29157676400564" y="171.24024481346873" as="targetPoint" />
          </mxGeometry>
        </mxCell>
        <mxCell id="GJpR_rD98a4P3vOJBigp-23" value="" style="endArrow=none;html=1;rounded=0;" edge="1" parent="1" source="GJpR_rD98a4P3vOJBigp-1" target="GJpR_rD98a4P3vOJBigp-17">
          <mxGeometry width="50" height="50" relative="1" as="geometry">
            <mxPoint x="280" y="234.375" as="sourcePoint" />
            <mxPoint x="223.24485493883526" y="257.4317776810982" as="targetPoint" />
          </mxGeometry>
        </mxCell>
        <mxCell id="GJpR_rD98a4P3vOJBigp-24" value="" style="endArrow=none;html=1;rounded=0;" edge="1" parent="1" source="GJpR_rD98a4P3vOJBigp-2" target="GJpR_rD98a4P3vOJBigp-1">
          <mxGeometry width="50" height="50" relative="1" as="geometry">
            <mxPoint x="290" y="244.375" as="sourcePoint" />
            <mxPoint x="233.24485493883526" y="267.4317776810982" as="targetPoint" />
          </mxGeometry>
        </mxCell>
        <mxCell id="GJpR_rD98a4P3vOJBigp-25" value="" style="endArrow=none;html=1;rounded=0;exitX=0;exitY=0.25;exitDx=0;exitDy=0;" edge="1" parent="1" source="GJpR_rD98a4P3vOJBigp-2">
          <mxGeometry width="50" height="50" relative="1" as="geometry">
            <mxPoint x="520" y="210" as="sourcePoint" />
            <mxPoint x="460" y="200" as="targetPoint" />
          </mxGeometry>
        </mxCell>
        <mxCell id="GJpR_rD98a4P3vOJBigp-26" value="" style="endArrow=none;html=1;rounded=0;exitX=0;exitY=0.75;exitDx=0;exitDy=0;" edge="1" parent="1" source="GJpR_rD98a4P3vOJBigp-2">
          <mxGeometry width="50" height="50" relative="1" as="geometry">
            <mxPoint x="520" y="195" as="sourcePoint" />
            <mxPoint x="460" y="200" as="targetPoint" />
          </mxGeometry>
        </mxCell>
      </root>
    </mxGraphModel>
  </diagram>
</mxfile>
